<svg width="651" height="200" viewBox="0 0 651 200" fill="none" xmlns="http://www.w3.org/2000/svg">
<path d="M174.2 90.13C174.2 85.24 170.22 81.25 165.32 81.25C161.73 81.25 158.51 83.39 157.13 86.71C154.96 91.52 150.49 93.75 143.06 93.75C123.76 93.75 109.75 66.6 109.75 29.19C109.75 13.1 96.66 0 80.56 0C64.46 0 51.37 13.09 51.37 29.19V29.89C51.28 65.3 42.1 83.95 20.72 92.22C8.5 95.87 0 107.29 0 120.01C0 136 13.01 149 28.99 149C44.97 149 57.98 135.99 57.98 120.01C57.98 89.42 67.71 65.61 80.61 64.63C88.39 64.04 95.96 66.94 102.52 73.01C113.53 83.22 120.11 100.71 120.11 119.81C120.11 132.46 130.4 142.75 143.05 142.75C155.7 142.75 165.99 132.46 165.99 119.81C165.99 119.24 165.96 118.68 165.92 118.12L165.89 117.42C165.49 107.88 165.3 103.41 171.11 96.92L171.08 96.9L171.52 96.47C173.24 94.78 174.19 92.53 174.19 90.13H174.2Z" fill="#3055FB"/>
<path d="M175.23 65.12C175.23 70.01 179.21 74 184.11 74C187.39 74 190.39 72.2 191.94 69.31L192.21 68.8L192.24 68.82C196.79 61.45 201.09 60.38 210.3 58.09L210.96 57.93C211.55 57.81 212.16 57.66 212.82 57.47C222.55 54.6 229.32 45.56 229.32 35.46C229.32 22.81 219.03 12.52 206.38 12.52C193.73 12.52 183.44 22.81 183.44 35.46C183.44 36.03 183.47 36.59 183.51 37.15L183.54 37.84C183.94 47.42 184.13 51.89 178.25 58.42L178.27 58.44L177.91 58.8C176.19 60.49 175.24 62.74 175.24 65.14L175.23 65.12Z" fill="white"/>
<path d="M356.3 101.14C354.98 96.45 352.84 92.22 349.95 88.56C347.06 84.9 343.49 81.98 339.34 79.88C335.2 77.78 330.58 76.71 325.6 76.71C321.22 76.71 317.04 77.59 313.18 79.33C309.31 81.07 305.87 83.52 302.96 86.6C300.04 89.69 297.72 93.31 296.06 97.38C294.4 101.44 293.56 105.86 293.56 110.5C293.56 116.68 295.02 122.4 297.89 127.5C300.77 132.61 304.67 136.73 309.5 139.75C314.32 142.77 319.74 144.3 325.61 144.3C331.99 144.3 337.82 142.48 342.96 138.89C347.94 135.41 351.78 130.9 354.38 125.49L339.11 121.93C337.59 124.19 335.68 126.02 333.45 127.36C331.1 128.77 328.43 129.46 325.6 129.42C322.84 129.38 320.33 128.75 318.14 127.57C315.96 126.39 314.13 124.79 312.7 122.8C311.28 120.83 310.25 118.57 309.63 116.09L309.47 115.47H357.26C357.91 110.51 357.59 105.69 356.3 101.13V101.14ZM308.97 104.56L309.1 103.96C309.68 101.26 310.77 98.79 312.34 96.64C313.92 94.49 315.86 92.75 318.13 91.49C320.41 90.22 322.92 89.57 325.6 89.57C328.28 89.57 330.81 90.23 333.13 91.52C335.44 92.81 337.41 94.55 338.99 96.71C340.57 98.87 341.61 101.31 342.11 103.98L342.22 104.57H308.98L308.97 104.56Z" fill="white"/>
<path d="M379.57 141.02C383.38 143.28 387.65 144.43 392.27 144.43C395.7 144.43 398.96 143.75 401.96 142.42C404.97 141.09 407.61 139.25 409.81 136.96L410.66 136.08L410.73 142.73H425.62L425.56 78.6399H410.68V114.98C410.68 117.62 410.02 120.06 408.72 122.23C407.42 124.4 405.68 126.14 403.53 127.42C401.38 128.7 398.93 129.35 396.24 129.35C393.55 129.35 391.23 128.7 389.05 127.43C386.88 126.16 385.13 124.41 383.83 122.24C382.53 120.07 381.87 117.63 381.87 114.99V78.6499H366.99V119.16C366.99 123.82 368.14 128.1 370.4 131.89C372.67 135.68 375.75 138.76 379.57 141.03V141.02Z" fill="white"/>
<path d="M459.3 93.84C461.47 92.56 463.91 91.92 466.55 91.92C468.13 91.92 469.74 92.21 471.32 92.79L481.29 79.3C477.41 77.49 473.14 76.83 470.59 76.83C467.12 76.83 463.84 77.51 460.83 78.84C457.82 80.17 455.21 82.01 453.05 84.29L452.2 85.19L452.13 78.65H437.24L437.3 142.74H452.18V106.27C452.18 103.63 452.83 101.19 454.1 99.02C455.37 96.85 457.12 95.1 459.29 93.83L459.3 93.84Z" fill="white"/>
<path d="M526.08 81.25C521.26 78.23 515.84 76.7 509.98 76.7C505.6 76.7 501.42 77.58 497.56 79.32C493.69 81.06 490.25 83.51 487.34 86.59C484.42 89.68 482.1 93.3 480.44 97.37C478.78 101.43 477.94 105.87 477.94 110.56C477.94 116.74 479.4 122.45 482.27 127.53C485.15 132.62 489.05 136.73 493.88 139.75C498.7 142.77 504.12 144.3 509.99 144.3C514.41 144.3 518.6 143.42 522.44 141.68C526.29 139.94 529.72 137.49 532.63 134.4C535.55 131.32 537.87 127.7 539.53 123.65C541.19 119.61 542.03 115.2 542.03 110.56C542.03 104.34 540.57 98.6 537.7 93.49C534.83 88.38 530.92 84.26 526.09 81.24L526.08 81.25ZM524.9 119.92C523.41 122.76 521.35 125.08 518.78 126.81C516.19 128.55 513.23 129.43 509.97 129.43C506.89 129.43 504.01 128.58 501.4 126.91C498.8 125.24 496.69 122.96 495.15 120.12C493.6 117.28 492.81 114.07 492.81 110.57C492.81 107.07 493.57 104.04 495.08 101.16C496.59 98.28 498.66 95.94 501.23 94.21C503.82 92.47 506.76 91.59 509.97 91.59C513.18 91.59 516 92.46 518.61 94.18C521.21 95.89 523.3 98.21 524.83 101.07C526.36 103.93 527.14 107.13 527.14 110.58C527.14 114.03 526.39 117.09 524.9 119.93V119.92Z" fill="white"/>
<path d="M573.43 93.84C575.6 92.56 578.04 91.92 580.68 91.92C583.32 91.92 585.76 92.57 587.93 93.84C590.1 95.11 591.85 96.86 593.15 99.03C594.45 101.21 595.11 103.65 595.11 106.28V142.75H609.99V102.11C609.99 97.45 608.84 93.17 606.58 89.38C604.31 85.59 601.23 82.51 597.41 80.25C593.6 77.99 589.33 76.84 584.71 76.84C581.24 76.84 577.96 77.52 574.95 78.85C571.94 80.18 569.33 82.02 567.17 84.3L566.32 85.2L566.25 78.66H551.36L551.42 142.75H566.3V106.28C566.3 103.64 566.95 101.2 568.22 99.03C569.49 96.86 571.24 95.11 573.41 93.84H573.43Z" fill="white"/>
<path d="M246.87 93.8299C249.04 92.5499 251.48 91.91 254.12 91.91C256.76 91.91 259.2 92.5599 261.37 93.8299C263.54 95.0999 265.29 96.8499 266.59 99.0199C267.89 101.2 268.55 103.64 268.55 106.27V142.74H283.43V102.1C283.43 97.4399 282.28 93.16 280.02 89.3699C277.75 85.5799 274.67 82.4999 270.85 80.2299C267.04 77.9699 262.77 76.8199 258.15 76.8199C254.68 76.8199 251.4 77.4999 248.4 78.8299C245.4 80.1599 242.78 81.9999 240.62 84.2799L239.77 85.1799L239.7 78.6399H224.81L224.87 142.73H239.75V106.26C239.75 103.62 240.4 101.18 241.68 99.0099C242.95 96.8399 244.7 95.0999 246.87 93.8199V93.8299Z" fill="white"/>
<path d="M425.73 198.95V159.38H417.27V173.52H403.22V159.38H394.76V198.95H403.22V181.98H417.27V198.95H425.73Z" fill="white"/>
<path d="M462.51 167.84V159.38H437.3V198.95H462.51V190.48H445.77V181.98H458.66V173.52H445.77V167.84H462.51Z" fill="white"/>
<path d="M497.36 192.73L499.62 198.95H508.59L494.23 159.38H484.69L470.33 198.95H479.3L481.56 192.73H497.35H497.36ZM489.43 171.1L494.25 184.26H484.66L489.43 171.1Z" fill="white"/>
<path d="M515.42 159.38V198.95H539.44V190.48H523.88V159.38H515.42Z" fill="white"/>
<path d="M571.53 159.38H540.44V167.84H551.75V198.95H560.22V167.84H571.53V159.38Z" fill="white"/>
<path d="M601.52 159.38V173.52H587.47V159.38H579.01V198.95H587.47V181.98H601.52V198.95H609.99V159.38H601.52Z" fill="white"/>
</svg>
